<?xml version="1.0" encoding="utf-8"?>
<!-- Generator: Adobe Illustrator 17.0.0, SVG Export Plug-In . SVG Version: 6.00 Build 0)  -->
<!DOCTYPE svg PUBLIC "-//W3C//DTD SVG 1.1//EN" "http://www.w3.org/Graphics/SVG/1.1/DTD/svg11.dtd">
<svg version="1.1" xmlns="http://www.w3.org/2000/svg" xmlns:xlink="http://www.w3.org/1999/xlink" x="0px" y="0px"
	 width="425.75699px" height="425.75659px" viewBox="0 0 425.75699 425.75659" enable-background="new 0 0 425.75699 425.75659"
	 xml:space="preserve">
<g id="all">
	<path fill-rule="evenodd" clip-rule="evenodd" fill="#003261" d="M212.87849,425.75659
		c117.2494,0,212.87849-95.629,212.87849-212.87819C425.75699,95.629,330.1279,0,212.87849,0S0,95.629,0,212.8784
		C0,330.12759,95.629,425.75659,212.87849,425.75659z"/>
	<path fill-rule="evenodd" clip-rule="evenodd" fill="#1D5689" d="M212.87849,422.47891
		c115.44432,0,209.60081-94.15671,209.60081-209.60051c0-115.444-94.15649-209.60071-209.60081-209.60071
		C97.4344,3.2777,3.2777,97.4344,3.2777,212.8784C3.2777,328.3222,97.4344,422.47891,212.87849,422.47891z"/>
	
		<path fill-rule="evenodd" clip-rule="evenodd" fill="#FFFFFF" stroke="#FFFFFF" stroke-width="0.5669" stroke-miterlimit="22.9256" d="
		M212.87849,384.25519c94.3911,0,171.377-76.9859,171.377-171.37679c0-94.39111-76.9859-171.377-171.377-171.377
		c-94.3912,0-171.37669,76.9859-171.37669,171.377C41.5018,307.26929,118.4873,384.25519,212.87849,384.25519z"/>
	<radialGradient id="SVGID_1_" cx="212.87849" cy="212.8783" r="232.06238" gradientUnits="userSpaceOnUse">
		<stop  offset="0" style="stop-color:#FFFFFF"/>
		<stop  offset="0.64" style="stop-color:#F7F6F7"/>
		<stop  offset="0.74" style="stop-color:#E2E5E5"/>
		<stop  offset="1" style="stop-color:#E0E2E4"/>
	</radialGradient>
	<path fill-rule="evenodd" clip-rule="evenodd" fill="url(#SVGID_1_)" d="M212.87849,376.97269
		c90.38011,0,164.0945-73.71439,164.0945-164.09428c0-90.3801-73.71439-164.0945-164.0945-164.0945S48.784,122.4983,48.784,212.8784
		C48.784,303.2583,122.4984,376.97269,212.87849,376.97269z"/>
	<radialGradient id="SVGID_2_" cx="212.87849" cy="212.8784" r="214.69254" gradientUnits="userSpaceOnUse">
		<stop  offset="0" style="stop-color:#950E11"/>
		<stop  offset="1" style="stop-color:#F04C23"/>
	</radialGradient>
	
		<path fill-rule="evenodd" clip-rule="evenodd" fill="url(#SVGID_2_)" stroke="#FFFFFF" stroke-width="0.5669" stroke-miterlimit="22.9256" d="
		M212.87849,61.0664c83.8437,0,151.812,67.9683,151.812,151.81201c0,83.8438-67.96829,151.812-151.812,151.812
		s-151.812-67.9682-151.812-151.812C61.0665,129.0347,129.03481,61.0664,212.87849,61.0664L212.87849,61.0664z M212.87849,70.2924
		c-78.74789,0-142.58609,63.8382-142.58609,142.586c0,78.74791,63.8382,142.58611,142.58609,142.58611
		S355.4646,291.62631,355.4646,212.8784C355.4646,134.1306,291.6264,70.2924,212.87849,70.2924z"/>
	<g>
		<circle fill-rule="evenodd" clip-rule="evenodd" fill="#C8D7D7" cx="220.05034" cy="87.11751" r="0.774"/>
		<circle fill-rule="evenodd" clip-rule="evenodd" fill="#C8D7D7" cx="223.85905" cy="87.3885" r="0.774"/>
		<circle fill-rule="evenodd" clip-rule="evenodd" fill="#C8D7D7" cx="227.77287" cy="87.78792" r="0.774"/>
		<circle fill-rule="evenodd" clip-rule="evenodd" fill="#C8D7D7" cx="231.59367" cy="88.29762" r="0.774"/>
		<circle fill-rule="evenodd" clip-rule="evenodd" fill="#C8D7D7" cx="235.58122" cy="88.95717" r="0.774"/>
		<circle fill-rule="evenodd" clip-rule="evenodd" fill="#C8D7D7" cx="239.5114" cy="89.73763" r="0.774"/>
		<circle fill-rule="evenodd" clip-rule="evenodd" fill="#C8D7D7" cx="243.01726" cy="90.54567" r="0.77385"/>
		<circle fill-rule="evenodd" clip-rule="evenodd" fill="#C8D7D7" cx="246.88432" cy="91.56032" r="0.774"/>
		<circle fill-rule="evenodd" clip-rule="evenodd" fill="#C8D7D7" cx="250.47954" cy="92.6244" r="0.774"/>
		<circle fill-rule="evenodd" clip-rule="evenodd" fill="#C8D7D7" cx="254.08122" cy="93.80959" r="0.774"/>
		<circle fill-rule="evenodd" clip-rule="evenodd" fill="#C8D7D7" cx="257.90741" cy="95.20387" r="0.774"/>
		<circle fill-rule="evenodd" clip-rule="evenodd" fill="#C8D7D7" cx="261.47906" cy="96.6346" r="0.774"/>
		<circle fill-rule="evenodd" clip-rule="evenodd" fill="#C8D7D7" cx="264.92804" cy="98.13948" r="0.774"/>
		<circle fill-rule="evenodd" clip-rule="evenodd" fill="#C8D7D7" cx="268.45538" cy="99.8091" r="0.774"/>
		<circle fill-rule="evenodd" clip-rule="evenodd" fill="#C8D7D7" cx="272.23309" cy="101.74971" r="0.774"/>
		<circle fill-rule="evenodd" clip-rule="evenodd" fill="#C8D7D7" cx="216.2968" cy="86.96217" r="0.774"/>
		<circle fill-rule="evenodd" clip-rule="evenodd" fill="#C8D7D7" cx="281.90985" cy="107.50032" r="0.774"/>
		<circle fill-rule="evenodd" clip-rule="evenodd" fill="#C8D7D7" cx="285.07294" cy="109.63936" r="0.77393"/>
		<circle fill-rule="evenodd" clip-rule="evenodd" fill="#C8D7D7" cx="288.26251" cy="111.94228" r="0.7739"/>
		<circle fill-rule="evenodd" clip-rule="evenodd" fill="#C8D7D7" cx="291.31671" cy="114.29384" r="0.774"/>
		<circle fill-rule="evenodd" clip-rule="evenodd" fill="#C8D7D7" cx="294.44" cy="116.85896" r="0.77393"/>
		<circle fill-rule="evenodd" clip-rule="evenodd" fill="#C8D7D7" cx="297.45355" cy="119.49977" r="0.77406"/>
		<circle fill-rule="evenodd" clip-rule="evenodd" fill="#C8D7D7" cx="300.086" cy="121.95222" r="0.77398"/>
		<circle fill-rule="evenodd" clip-rule="evenodd" fill="#C8D7D7" cx="302.92731" cy="124.76472" r="0.77393"/>
		<circle fill-rule="evenodd" clip-rule="evenodd" fill="#C8D7D7" cx="305.50873" cy="127.48372" r="0.77393"/>
		<circle fill-rule="evenodd" clip-rule="evenodd" fill="#C8D7D7" cx="308.03546" cy="130.31136" r="0.77398"/>
		<circle fill-rule="evenodd" clip-rule="evenodd" fill="#C8D7D7" cx="310.65179" cy="133.43196" r="0.774"/>
		<circle fill-rule="evenodd" clip-rule="evenodd" fill="#C8D7D7" cx="313.02948" cy="136.45656" r="0.774"/>
		<circle fill-rule="evenodd" clip-rule="evenodd" fill="#C8D7D7" cx="315.26422" cy="139.48457" r="0.7739"/>
		<circle fill-rule="evenodd" clip-rule="evenodd" fill="#C8D7D7" cx="317.48419" cy="142.69398" r="0.77411"/>
		<circle fill-rule="evenodd" clip-rule="evenodd" fill="#C8D7D7" cx="319.78546" cy="146.26357" r="0.77393"/>
		<circle fill-rule="evenodd" clip-rule="evenodd" fill="#C8D7D7" cx="278.737" cy="105.48885" r="0.77393"/>
		<circle fill-rule="evenodd" clip-rule="evenodd" fill="#C8D7D7" cx="325.3548" cy="156.27827" r="0.77393"/>
		<circle fill-rule="evenodd" clip-rule="evenodd" fill="#C8D7D7" cx="327.02472" cy="159.71211" r="0.7739"/>
		<circle fill-rule="evenodd" clip-rule="evenodd" fill="#C8D7D7" cx="328.63568" cy="163.30122" r="0.774"/>
		<circle fill-rule="evenodd" clip-rule="evenodd" fill="#C8D7D7" cx="330.10455" cy="166.86488" r="0.774"/>
		<circle fill-rule="evenodd" clip-rule="evenodd" fill="#C8D7D7" cx="331.52716" cy="170.64815" r="0.77406"/>
		<circle fill-rule="evenodd" clip-rule="evenodd" fill="#C8D7D7" cx="332.81647" cy="174.44179" r="0.7739"/>
		<circle fill-rule="evenodd" clip-rule="evenodd" fill="#C8D7D7" cx="333.86981" cy="177.88191" r="0.7739"/>
		<circle fill-rule="evenodd" clip-rule="evenodd" fill="#C8D7D7" cx="334.92438" cy="181.7383" r="0.774"/>
		<circle fill-rule="evenodd" clip-rule="evenodd" fill="#C8D7D7" cx="335.80048" cy="185.3838" r="0.7739"/>
		<circle fill-rule="evenodd" clip-rule="evenodd" fill="#C8D7D7" cx="336.57501" cy="189.0959" r="0.774"/>
		<circle fill-rule="evenodd" clip-rule="evenodd" fill="#C8D7D7" cx="337.28046" cy="193.10652" r="0.7739"/>
		<circle fill-rule="evenodd" clip-rule="evenodd" fill="#C8D7D7" cx="337.82721" cy="196.91487" r="0.77393"/>
		<circle fill-rule="evenodd" clip-rule="evenodd" fill="#C8D7D7" cx="338.24847" cy="200.65431" r="0.7739"/>
		<circle fill-rule="evenodd" clip-rule="evenodd" fill="#C8D7D7" cx="338.56622" cy="204.54402" r="0.7739"/>
		<circle fill-rule="evenodd" clip-rule="evenodd" fill="#C8D7D7" cx="338.77448" cy="208.78578" r="0.77403"/>
		<circle fill-rule="evenodd" clip-rule="evenodd" fill="#C8D7D7" cx="323.61261" cy="152.94978" r="0.7739"/>
		<circle fill-rule="evenodd" clip-rule="evenodd" fill="#C8D7D7" cx="220.95744" cy="338.61166" r="0.774"/>
		<circle fill-rule="evenodd" clip-rule="evenodd" fill="#C8D7D7" cx="224.76604" cy="338.34067" r="0.774"/>
		<circle fill-rule="evenodd" clip-rule="evenodd" fill="#C8D7D7" cx="228.67986" cy="337.94125" r="0.774"/>
		<circle fill-rule="evenodd" clip-rule="evenodd" fill="#C8D7D7" cx="232.50078" cy="337.43137" r="0.77385"/>
		<circle fill-rule="evenodd" clip-rule="evenodd" fill="#C8D7D7" cx="236.48833" cy="336.77194" r="0.774"/>
		<circle fill-rule="evenodd" clip-rule="evenodd" fill="#C8D7D7" cx="240.41814" cy="335.9913" r="0.77385"/>
		<circle fill-rule="evenodd" clip-rule="evenodd" fill="#C8D7D7" cx="243.92436" cy="335.18393" r="0.774"/>
		<circle fill-rule="evenodd" clip-rule="evenodd" fill="#C8D7D7" cx="247.79106" cy="334.16867" r="0.77385"/>
		<circle fill-rule="evenodd" clip-rule="evenodd" fill="#C8D7D7" cx="251.38628" cy="333.10507" r="0.774"/>
		<circle fill-rule="evenodd" clip-rule="evenodd" fill="#C8D7D7" cx="254.98833" cy="331.91953" r="0.774"/>
		<circle fill-rule="evenodd" clip-rule="evenodd" fill="#C8D7D7" cx="258.81451" cy="330.52524" r="0.774"/>
		<circle fill-rule="evenodd" clip-rule="evenodd" fill="#C8D7D7" cx="262.38593" cy="329.09457" r="0.774"/>
		<circle fill-rule="evenodd" clip-rule="evenodd" fill="#C8D7D7" cx="265.83514" cy="327.58945" r="0.77385"/>
		<circle fill-rule="evenodd" clip-rule="evenodd" fill="#C8D7D7" cx="269.45245" cy="325.65244" r="0.774"/>
		<circle fill-rule="evenodd" clip-rule="evenodd" fill="#C8D7D7" cx="272.99542" cy="323.59592" r="0.774"/>
		<circle fill-rule="evenodd" clip-rule="evenodd" fill="#C8D7D7" cx="217.2039" cy="338.76682" r="0.77385"/>
		<circle fill-rule="evenodd" clip-rule="evenodd" fill="#C8D7D7" cx="282.56329" cy="317.82516" r="0.774"/>
		<circle fill-rule="evenodd" clip-rule="evenodd" fill="#C8D7D7" cx="286.05939" cy="315.59457" r="0.7739"/>
		<circle fill-rule="evenodd" clip-rule="evenodd" fill="#C8D7D7" cx="288.84674" cy="313.36191" r="0.7739"/>
		<circle fill-rule="evenodd" clip-rule="evenodd" fill="#C8D7D7" cx="292.28448" cy="310.66367" r="0.77398"/>
		<circle fill-rule="evenodd" clip-rule="evenodd" fill="#C8D7D7" cx="295.20905" cy="308.21225" r="0.77393"/>
		<circle fill-rule="evenodd" clip-rule="evenodd" fill="#C8D7D7" cx="297.99799" cy="305.72922" r="0.77398"/>
		<circle fill-rule="evenodd" clip-rule="evenodd" fill="#C8D7D7" cx="300.86725" cy="303.01328" r="0.7739"/>
		<circle fill-rule="evenodd" clip-rule="evenodd" fill="#C8D7D7" cx="303.64716" cy="300.21347" r="0.774"/>
		<circle fill-rule="evenodd" clip-rule="evenodd" fill="#C8D7D7" cx="306.17352" cy="297.51035" r="0.7739"/>
		<circle fill-rule="evenodd" clip-rule="evenodd" fill="#C8D7D7" cx="308.94232" cy="294.64462" r="0.77393"/>
		<circle fill-rule="evenodd" clip-rule="evenodd" fill="#C8D7D7" cx="311.49835" cy="291.56906" r="0.77402"/>
		<circle fill-rule="evenodd" clip-rule="evenodd" fill="#C8D7D7" cx="313.71393" cy="288.37997" r="0.77393"/>
		<circle fill-rule="evenodd" clip-rule="evenodd" fill="#C8D7D7" cx="315.98431" cy="285.25388" r="0.77398"/>
		<circle fill-rule="evenodd" clip-rule="evenodd" fill="#C8D7D7" cx="318.2038" cy="281.99033" r="0.77393"/>
		<circle fill-rule="evenodd" clip-rule="evenodd" fill="#C8D7D7" cx="320.1817" cy="278.88388" r="0.77393"/>
		<circle fill-rule="evenodd" clip-rule="evenodd" fill="#C8D7D7" cx="279.54462" cy="319.77194" r="0.77393"/>
		<circle fill-rule="evenodd" clip-rule="evenodd" fill="#C8D7D7" cx="326.15167" cy="268.67764" r="0.7739"/>
		<circle fill-rule="evenodd" clip-rule="evenodd" fill="#C8D7D7" cx="327.47235" cy="265.24539" r="0.7739"/>
		<circle fill-rule="evenodd" clip-rule="evenodd" fill="#C8D7D7" cx="329.09247" cy="261.55002" r="0.77409"/>
		<circle fill-rule="evenodd" clip-rule="evenodd" fill="#C8D7D7" cx="330.51605" cy="258.00375" r="0.77406"/>
		<circle fill-rule="evenodd" clip-rule="evenodd" fill="#C8D7D7" cx="331.80255" cy="254.49617" r="0.77393"/>
		<circle fill-rule="evenodd" clip-rule="evenodd" fill="#C8D7D7" cx="333.05292" cy="250.90065" r="0.77393"/>
		<circle fill-rule="evenodd" clip-rule="evenodd" fill="#C8D7D7" cx="334.18671" cy="246.91884" r="0.77393"/>
		<circle fill-rule="evenodd" clip-rule="evenodd" fill="#C8D7D7" cx="335.17462" cy="243.16707" r="0.77398"/>
		<circle fill-rule="evenodd" clip-rule="evenodd" fill="#C8D7D7" cx="336.03168" cy="239.45296" r="0.77406"/>
		<circle fill-rule="evenodd" clip-rule="evenodd" fill="#C8D7D7" cx="336.77069" cy="235.73897" r="0.77399"/>
		<circle fill-rule="evenodd" clip-rule="evenodd" fill="#C8D7D7" cx="337.45819" cy="231.6017" r="0.774"/>
		<circle fill-rule="evenodd" clip-rule="evenodd" fill="#C8D7D7" cx="337.94293" cy="227.98994" r="0.77393"/>
		<circle fill-rule="evenodd" clip-rule="evenodd" fill="#C8D7D7" cx="338.32245" cy="224.37434" r="0.77393"/>
		<circle fill-rule="evenodd" clip-rule="evenodd" fill="#C8D7D7" cx="338.60065" cy="221.1855" r="0.77413"/>
		<circle fill-rule="evenodd" clip-rule="evenodd" fill="#C8D7D7" cx="338.7879" cy="216.94362" r="0.7739"/>
		<circle fill-rule="evenodd" clip-rule="evenodd" fill="#C8D7D7" cx="324.03961" cy="272.17215" r="0.77393"/>
		<circle fill-rule="evenodd" clip-rule="evenodd" fill="#C8D7D7" cx="205.70427" cy="87.11751" r="0.774"/>
		<circle fill-rule="evenodd" clip-rule="evenodd" fill="#C8D7D7" cx="201.89543" cy="87.3885" r="0.774"/>
		<circle fill-rule="evenodd" clip-rule="evenodd" fill="#C8D7D7" cx="197.98186" cy="87.78792" r="0.774"/>
		<circle fill-rule="evenodd" clip-rule="evenodd" fill="#C8D7D7" cx="194.16093" cy="88.29762" r="0.774"/>
		<circle fill-rule="evenodd" clip-rule="evenodd" fill="#C8D7D7" cx="190.17351" cy="88.95717" r="0.774"/>
		<circle fill-rule="evenodd" clip-rule="evenodd" fill="#C8D7D7" cx="186.24333" cy="89.73763" r="0.774"/>
		<circle fill-rule="evenodd" clip-rule="evenodd" fill="#C8D7D7" cx="182.73735" cy="90.54567" r="0.77385"/>
		<circle fill-rule="evenodd" clip-rule="evenodd" fill="#C8D7D7" cx="178.87041" cy="91.56032" r="0.774"/>
		<circle fill-rule="evenodd" clip-rule="evenodd" fill="#C8D7D7" cx="175.27519" cy="92.6244" r="0.774"/>
		<circle fill-rule="evenodd" clip-rule="evenodd" fill="#C8D7D7" cx="171.67314" cy="93.80959" r="0.774"/>
		<circle fill-rule="evenodd" clip-rule="evenodd" fill="#C8D7D7" cx="167.84734" cy="95.20387" r="0.774"/>
		<circle fill-rule="evenodd" clip-rule="evenodd" fill="#C8D7D7" cx="164.27568" cy="96.6346" r="0.774"/>
		<circle fill-rule="evenodd" clip-rule="evenodd" fill="#C8D7D7" cx="160.82646" cy="98.13948" r="0.774"/>
		<circle fill-rule="evenodd" clip-rule="evenodd" fill="#C8D7D7" cx="157.29924" cy="99.8091" r="0.774"/>
		<circle fill-rule="evenodd" clip-rule="evenodd" fill="#C8D7D7" cx="153.52165" cy="101.74971" r="0.774"/>
		<circle fill-rule="evenodd" clip-rule="evenodd" fill="#C8D7D7" cx="209.45793" cy="86.96217" r="0.774"/>
		<circle fill-rule="evenodd" clip-rule="evenodd" fill="#C8D7D7" cx="143.84465" cy="107.50032" r="0.77393"/>
		<circle fill-rule="evenodd" clip-rule="evenodd" fill="#C8D7D7" cx="140.68169" cy="109.63936" r="0.77393"/>
		<circle fill-rule="evenodd" clip-rule="evenodd" fill="#C8D7D7" cx="137.49211" cy="111.94228" r="0.774"/>
		<circle fill-rule="evenodd" clip-rule="evenodd" fill="#C8D7D7" cx="134.43803" cy="114.29384" r="0.77398"/>
		<circle fill-rule="evenodd" clip-rule="evenodd" fill="#C8D7D7" cx="131.3145" cy="116.85896" r="0.77398"/>
		<circle fill-rule="evenodd" clip-rule="evenodd" fill="#C8D7D7" cx="128.30119" cy="119.49977" r="0.77406"/>
		<circle fill-rule="evenodd" clip-rule="evenodd" fill="#C8D7D7" cx="125.66875" cy="121.95222" r="0.77398"/>
		<circle fill-rule="evenodd" clip-rule="evenodd" fill="#C8D7D7" cx="122.82732" cy="124.76472" r="0.77398"/>
		<circle fill-rule="evenodd" clip-rule="evenodd" fill="#C8D7D7" cx="120.24578" cy="127.48372" r="0.774"/>
		<circle fill-rule="evenodd" clip-rule="evenodd" fill="#C8D7D7" cx="117.71917" cy="130.31136" r="0.77393"/>
		<circle fill-rule="evenodd" clip-rule="evenodd" fill="#C8D7D7" cx="115.10271" cy="133.43196" r="0.77393"/>
		<circle fill-rule="evenodd" clip-rule="evenodd" fill="#C8D7D7" cx="112.72503" cy="136.45656" r="0.77393"/>
		<circle fill-rule="evenodd" clip-rule="evenodd" fill="#C8D7D7" cx="110.49053" cy="139.48457" r="0.77393"/>
		<circle fill-rule="evenodd" clip-rule="evenodd" fill="#C8D7D7" cx="108.27044" cy="142.69398" r="0.77406"/>
		<circle fill-rule="evenodd" clip-rule="evenodd" fill="#C8D7D7" cx="105.96929" cy="146.26357" r="0.77393"/>
		<circle fill-rule="evenodd" clip-rule="evenodd" fill="#C8D7D7" cx="147.01775" cy="105.48885" r="0.77393"/>
		<circle fill-rule="evenodd" clip-rule="evenodd" fill="#C8D7D7" cx="100.39959" cy="156.27827" r="0.77393"/>
		<circle fill-rule="evenodd" clip-rule="evenodd" fill="#C8D7D7" cx="98.73003" cy="159.71211" r="0.7739"/>
		<circle fill-rule="evenodd" clip-rule="evenodd" fill="#C8D7D7" cx="97.11907" cy="163.30122" r="0.774"/>
		<circle fill-rule="evenodd" clip-rule="evenodd" fill="#C8D7D7" cx="95.64996" cy="166.86488" r="0.77413"/>
		<circle fill-rule="evenodd" clip-rule="evenodd" fill="#C8D7D7" cx="94.22747" cy="170.64815" r="0.77393"/>
		<circle fill-rule="evenodd" clip-rule="evenodd" fill="#C8D7D7" cx="92.93829" cy="174.44179" r="0.7739"/>
		<circle fill-rule="evenodd" clip-rule="evenodd" fill="#C8D7D7" cx="91.88494" cy="177.88191" r="0.7739"/>
		<circle fill-rule="evenodd" clip-rule="evenodd" fill="#C8D7D7" cx="90.8305" cy="181.7383" r="0.774"/>
		<circle fill-rule="evenodd" clip-rule="evenodd" fill="#C8D7D7" cx="89.95428" cy="185.3838" r="0.7739"/>
		<circle fill-rule="evenodd" clip-rule="evenodd" fill="#C8D7D7" cx="89.17974" cy="189.0959" r="0.77405"/>
		<circle fill-rule="evenodd" clip-rule="evenodd" fill="#C8D7D7" cx="88.4743" cy="193.10652" r="0.7739"/>
		<circle fill-rule="evenodd" clip-rule="evenodd" fill="#C8D7D7" cx="87.92742" cy="196.91487" r="0.77393"/>
		<circle fill-rule="evenodd" clip-rule="evenodd" fill="#C8D7D7" cx="87.50628" cy="200.65431" r="0.7739"/>
		<circle fill-rule="evenodd" clip-rule="evenodd" fill="#C8D7D7" cx="87.18841" cy="204.54402" r="0.7739"/>
		<circle fill-rule="evenodd" clip-rule="evenodd" fill="#C8D7D7" cx="86.98016" cy="208.78578" r="0.7739"/>
		<circle fill-rule="evenodd" clip-rule="evenodd" fill="#C8D7D7" cx="102.1419" cy="152.94978" r="0.77403"/>
		<circle fill-rule="evenodd" clip-rule="evenodd" fill="#C8D7D7" cx="204.79716" cy="338.61166" r="0.774"/>
		<circle fill-rule="evenodd" clip-rule="evenodd" fill="#C8D7D7" cx="200.98857" cy="338.34067" r="0.774"/>
		<circle fill-rule="evenodd" clip-rule="evenodd" fill="#C8D7D7" cx="197.07475" cy="337.94125" r="0.774"/>
		<circle fill-rule="evenodd" clip-rule="evenodd" fill="#C8D7D7" cx="193.25395" cy="337.43137" r="0.77385"/>
		<circle fill-rule="evenodd" clip-rule="evenodd" fill="#C8D7D7" cx="189.26653" cy="336.77194" r="0.774"/>
		<circle fill-rule="evenodd" clip-rule="evenodd" fill="#C8D7D7" cx="185.33623" cy="335.9913" r="0.77385"/>
		<circle fill-rule="evenodd" clip-rule="evenodd" fill="#C8D7D7" cx="181.83025" cy="335.18393" r="0.774"/>
		<circle fill-rule="evenodd" clip-rule="evenodd" fill="#C8D7D7" cx="177.96355" cy="334.16867" r="0.77385"/>
		<circle fill-rule="evenodd" clip-rule="evenodd" fill="#C8D7D7" cx="174.36809" cy="333.10507" r="0.774"/>
		<circle fill-rule="evenodd" clip-rule="evenodd" fill="#C8D7D7" cx="170.7664" cy="331.91953" r="0.774"/>
		<circle fill-rule="evenodd" clip-rule="evenodd" fill="#C8D7D7" cx="166.94023" cy="330.52524" r="0.774"/>
		<circle fill-rule="evenodd" clip-rule="evenodd" fill="#C8D7D7" cx="163.36894" cy="329.09457" r="0.774"/>
		<circle fill-rule="evenodd" clip-rule="evenodd" fill="#C8D7D7" cx="159.91972" cy="327.58945" r="0.77385"/>
		<circle fill-rule="evenodd" clip-rule="evenodd" fill="#C8D7D7" cx="156.30241" cy="325.65244" r="0.774"/>
		<circle fill-rule="evenodd" clip-rule="evenodd" fill="#C8D7D7" cx="152.75932" cy="323.59592" r="0.774"/>
		<circle fill-rule="evenodd" clip-rule="evenodd" fill="#C8D7D7" cx="208.55083" cy="338.76682" r="0.77385"/>
		<circle fill-rule="evenodd" clip-rule="evenodd" fill="#C8D7D7" cx="143.19145" cy="317.82516" r="0.77398"/>
		<circle fill-rule="evenodd" clip-rule="evenodd" fill="#C8D7D7" cx="139.69524" cy="315.59457" r="0.7739"/>
		<circle fill-rule="evenodd" clip-rule="evenodd" fill="#C8D7D7" cx="136.908" cy="313.36191" r="0.7739"/>
		<circle fill-rule="evenodd" clip-rule="evenodd" fill="#C8D7D7" cx="133.47014" cy="310.66367" r="0.77393"/>
		<circle fill-rule="evenodd" clip-rule="evenodd" fill="#C8D7D7" cx="130.5457" cy="308.21225" r="0.77393"/>
		<circle fill-rule="evenodd" clip-rule="evenodd" fill="#C8D7D7" cx="127.75677" cy="305.72922" r="0.77398"/>
		<circle fill-rule="evenodd" clip-rule="evenodd" fill="#C8D7D7" cx="124.88738" cy="303.01328" r="0.7739"/>
		<circle fill-rule="evenodd" clip-rule="evenodd" fill="#C8D7D7" cx="122.10748" cy="300.21347" r="0.77393"/>
		<circle fill-rule="evenodd" clip-rule="evenodd" fill="#C8D7D7" cx="119.58123" cy="297.51035" r="0.77393"/>
		<circle fill-rule="evenodd" clip-rule="evenodd" fill="#C8D7D7" cx="116.81219" cy="294.64462" r="0.774"/>
		<circle fill-rule="evenodd" clip-rule="evenodd" fill="#C8D7D7" cx="114.2564" cy="291.56906" r="0.77402"/>
		<circle fill-rule="evenodd" clip-rule="evenodd" fill="#C8D7D7" cx="112.04082" cy="288.37997" r="0.7739"/>
		<circle fill-rule="evenodd" clip-rule="evenodd" fill="#C8D7D7" cx="109.7702" cy="285.25388" r="0.77393"/>
		<circle fill-rule="evenodd" clip-rule="evenodd" fill="#C8D7D7" cx="107.55096" cy="281.99033" r="0.7739"/>
		<circle fill-rule="evenodd" clip-rule="evenodd" fill="#C8D7D7" cx="105.57305" cy="278.88388" r="0.7739"/>
		<circle fill-rule="evenodd" clip-rule="evenodd" fill="#C8D7D7" cx="146.21001" cy="319.77194" r="0.77398"/>
		<circle fill-rule="evenodd" clip-rule="evenodd" fill="#C8D7D7" cx="99.60308" cy="268.67764" r="0.7739"/>
		<circle fill-rule="evenodd" clip-rule="evenodd" fill="#C8D7D7" cx="98.28216" cy="265.24539" r="0.7739"/>
		<circle fill-rule="evenodd" clip-rule="evenodd" fill="#C8D7D7" cx="96.66216" cy="261.55002" r="0.774"/>
		<circle fill-rule="evenodd" clip-rule="evenodd" fill="#C8D7D7" cx="95.23858" cy="258.00375" r="0.77393"/>
		<circle fill-rule="evenodd" clip-rule="evenodd" fill="#C8D7D7" cx="93.9522" cy="254.49617" r="0.77393"/>
		<circle fill-rule="evenodd" clip-rule="evenodd" fill="#C8D7D7" cx="92.70171" cy="250.90065" r="0.77406"/>
		<circle fill-rule="evenodd" clip-rule="evenodd" fill="#C8D7D7" cx="91.56792" cy="246.91884" r="0.77393"/>
		<circle fill-rule="evenodd" clip-rule="evenodd" fill="#C8D7D7" cx="90.58013" cy="243.16707" r="0.77398"/>
		<circle fill-rule="evenodd" clip-rule="evenodd" fill="#C8D7D7" cx="89.72295" cy="239.45296" r="0.77393"/>
		<circle fill-rule="evenodd" clip-rule="evenodd" fill="#C8D7D7" cx="88.98394" cy="235.73897" r="0.7739"/>
		<circle fill-rule="evenodd" clip-rule="evenodd" fill="#C8D7D7" cx="88.29656" cy="231.6017" r="0.774"/>
		<circle fill-rule="evenodd" clip-rule="evenodd" fill="#C8D7D7" cx="87.81182" cy="227.98994" r="0.77397"/>
		<circle fill-rule="evenodd" clip-rule="evenodd" fill="#C8D7D7" cx="87.4323" cy="224.37434" r="0.77393"/>
		<circle fill-rule="evenodd" clip-rule="evenodd" fill="#C8D7D7" cx="87.15386" cy="221.1855" r="0.774"/>
		<circle fill-rule="evenodd" clip-rule="evenodd" fill="#C8D7D7" cx="86.96673" cy="216.94362" r="0.7739"/>
		<circle fill-rule="evenodd" clip-rule="evenodd" fill="#C8D7D7" cx="101.71514" cy="272.17215" r="0.77393"/>
	</g>
</g>
<g id="points_1_">
	<g id="points">
		<path fill-rule="evenodd" clip-rule="evenodd" fill="#1D5689" d="M212.87849,341.08801c1.2433,0,2.25751-1.01422,2.25751-2.25772
			c0-1.24359-1.01421-2.2576-2.25751-2.2576s-2.25749,1.01401-2.25749,2.2576
			C210.621,340.07379,211.63519,341.08801,212.87849,341.08801z"/>
		<path fill-rule="evenodd" clip-rule="evenodd" fill="#1D5689" d="M276.289,324.15561c1.2435,0,2.25769-1.01431,2.25769-2.25781
			c0-1.24359-1.01419-2.25751-2.25769-2.25751c-1.24359,0-2.2576,1.01392-2.2576,2.25751
			C274.0314,323.1413,275.04541,324.15561,276.289,324.15561z"/>
		<path fill-rule="evenodd" clip-rule="evenodd" fill="#1D5689" d="M322.21811,278.22641c1.24359,0,2.25778-1.01431,2.25778-2.25781
			c0-1.24359-1.01419-2.25751-2.25778-2.25751c-1.2435,0-2.25751,1.01392-2.25751,2.25751
			C319.9606,277.2121,320.97461,278.22641,322.21811,278.22641z"/>
		<path fill-rule="evenodd" clip-rule="evenodd" fill="#1D5689" d="M338.93875,215.14136c1.24359,0,2.25781-1.01431,2.25781-2.25781
			c0-1.24359-1.01422-2.25749-2.25781-2.25749c-1.2435,0-2.25751,1.0139-2.25751,2.25749
			C336.68124,214.12704,337.69525,215.14136,338.93875,215.14136z"/>
		<path fill-rule="evenodd" clip-rule="evenodd" fill="#1D5689" d="M322.21811,152.04565c1.24359,0,2.25778-1.01431,2.25778-2.25781
			c0-1.24359-1.01419-2.25749-2.25778-2.25749c-1.2435,0-2.25751,1.0139-2.25751,2.25749
			C319.9606,151.03134,320.97461,152.04565,322.21811,152.04565z"/>
		<path fill-rule="evenodd" clip-rule="evenodd" fill="#1D5689" d="M276.28906,106.1163c1.24359,0,2.25778-1.01431,2.25778-2.2578
			c0-1.2436-1.01419-2.2575-2.25778-2.2575c-1.2435,0-2.25751,1.0139-2.25751,2.2575
			C274.03156,105.102,275.04556,106.1163,276.28906,106.1163z"/>
		<path fill-rule="evenodd" clip-rule="evenodd" fill="#1D5689" d="M212.88396,89.18425c1.24359,0,2.2578-1.0143,2.2578-2.2578
			c0-1.24361-1.01421-2.2575-2.2578-2.2575c-1.2435,0-2.25751,1.01389-2.25751,2.2575
			C210.62645,88.16995,211.64046,89.18425,212.88396,89.18425z"/>
		<path fill-rule="evenodd" clip-rule="evenodd" fill="#1D5689" d="M86.8181,215.136c1.2436,0,2.2578-1.0143,2.2578-2.2576
			c0-1.24321-1.0142-2.25751-2.2578-2.25751c-1.2435,0-2.2575,1.0143-2.2575,2.25751
			C84.5606,214.1217,85.5746,215.136,86.8181,215.136z"/>
		<path fill-rule="evenodd" clip-rule="evenodd" fill="#1D5689" d="M149.468,324.15561c1.24359,0,2.2578-1.01431,2.2578-2.25781
			c0-1.24359-1.01421-2.25751-2.2578-2.25751c-1.2435,0-2.25751,1.01392-2.25751,2.25751
			C147.21049,323.1413,148.2245,324.15561,149.468,324.15561z"/>
		<path fill-rule="evenodd" clip-rule="evenodd" fill="#1D5689" d="M103.5388,278.22641c1.2436,0,2.2578-1.01431,2.2578-2.25781
			c0-1.24359-1.0142-2.25751-2.2578-2.25751c-1.2435,0-2.2575,1.01392-2.2575,2.25751
			C101.2813,277.2121,102.2953,278.22641,103.5388,278.22641z"/>
		<path fill-rule="evenodd" clip-rule="evenodd" fill="#1D5689" d="M149.468,106.1163c1.24359,0,2.2578-1.0139,2.2578-2.2575
			c0-1.2435-1.01421-2.2578-2.2578-2.2578c-1.2435,0-2.25751,1.01431-2.25751,2.2578
			C147.21049,105.1024,148.2245,106.1163,149.468,106.1163z"/>
		<path fill-rule="evenodd" clip-rule="evenodd" fill="#1D5689" d="M103.5388,152.0455c1.2436,0,2.2578-1.0139,2.2578-2.25751
			c0-1.2435-1.0142-2.2578-2.2578-2.2578c-1.2435,0-2.2575,1.0143-2.2575,2.2578
			C101.2813,151.0316,102.2953,152.0455,103.5388,152.0455z"/>
	</g>
</g>
<g id="circle">
	
		<circle id="circle_1_" fill-rule="evenodd" clip-rule="evenodd" fill="none" stroke="#000000" stroke-width="32" stroke-miterlimit="22.9256" cx="212.87846" cy="212.87837" r="188"/>
</g>
</svg>
